<svg xmlns="http://www.w3.org/2000/svg" xmlns:xlink="http://www.w3.org/1999/xlink" width="100" zoomAndPan="magnify" viewBox="0 0 375 149.999998" height="100" preserveAspectRatio="xMidYMid meet" version="1.0"><defs><g/></defs><g fill="#f97015" fill-opacity="1"><g transform="translate(104.294574, 90.597376)"><g><path d="M 8.640625 -20.828125 C 8.691406 -20.472656 8.71875 -20.117188 8.71875 -19.765625 C 8.71875 -19.421875 8.71875 -19.0625 8.71875 -18.6875 C 8.71875 -17.132812 8.632812 -15.613281 8.46875 -14.125 C 8.3125 -12.644531 8.234375 -11.164062 8.234375 -9.6875 C 8.234375 -8.851562 8.273438 -8.023438 8.359375 -7.203125 C 8.441406 -6.390625 8.617188 -5.582031 8.890625 -4.78125 C 8.992188 -4.4375 9.066406 -4.101562 9.109375 -3.78125 C 9.148438 -3.457031 9.179688 -3.175781 9.203125 -2.9375 C 9.203125 -2.1875 9.035156 -1.59375 8.703125 -1.15625 C 8.367188 -0.726562 7.929688 -0.515625 7.390625 -0.515625 C 6.566406 -0.515625 5.882812 -0.859375 5.34375 -1.546875 C 4.8125 -2.234375 4.40625 -3.128906 4.125 -4.234375 C 3.84375 -5.347656 3.644531 -6.539062 3.53125 -7.8125 C 3.425781 -9.09375 3.367188 -10.332031 3.359375 -11.53125 C 3.347656 -12.738281 3.359375 -13.785156 3.390625 -14.671875 C 3.429688 -15.554688 3.453125 -16.144531 3.453125 -16.4375 C 3.453125 -17.644531 3.539062 -18.835938 3.71875 -20.015625 C 3.894531 -21.203125 4.316406 -22.34375 4.984375 -23.4375 C 5.117188 -23.707031 5.1875 -23.921875 5.1875 -24.078125 C 5.1875 -24.484375 5.023438 -24.863281 4.703125 -25.21875 C 4.378906 -25.582031 4.050781 -25.957031 3.71875 -26.34375 C 3.382812 -26.738281 3.21875 -27.148438 3.21875 -27.578125 C 3.21875 -27.953125 3.453125 -28.3125 3.921875 -28.65625 C 4.390625 -29.007812 4.863281 -29.1875 5.34375 -29.1875 C 5.832031 -29.1875 6.40625 -28.984375 7.0625 -28.578125 C 7.71875 -28.179688 8.285156 -27.769531 8.765625 -27.34375 C 10.296875 -25.96875 11.867188 -24.578125 13.484375 -23.171875 C 15.109375 -21.765625 16.613281 -20.289062 18 -18.75 C 19.394531 -17.207031 20.519531 -15.546875 21.375 -13.765625 C 22.238281 -11.984375 22.671875 -10.046875 22.671875 -7.953125 C 22.671875 -6.535156 22.4375 -5.367188 21.96875 -4.453125 C 21.5 -3.546875 20.851562 -2.8125 20.03125 -2.25 C 19.21875 -1.6875 18.28125 -1.226562 17.21875 -0.875 C 16.164062 -0.53125 15.0625 -0.210938 13.90625 0.078125 C 13.800781 0.109375 13.703125 0.128906 13.609375 0.140625 C 13.515625 0.148438 13.425781 0.15625 13.34375 0.15625 C 12.914062 0.15625 12.515625 0.0078125 12.140625 -0.28125 C 11.765625 -0.570312 11.460938 -0.929688 11.234375 -1.359375 C 11.003906 -1.796875 10.890625 -2.203125 10.890625 -2.578125 C 10.890625 -3.140625 11.148438 -3.617188 11.671875 -4.015625 C 12.203125 -4.421875 12.820312 -4.800781 13.53125 -5.15625 C 14.238281 -5.519531 14.847656 -5.921875 15.359375 -6.359375 C 16.828125 -7.554688 17.5625 -8.878906 17.5625 -10.328125 C 17.5625 -11.535156 17.273438 -12.664062 16.703125 -13.71875 C 16.128906 -14.78125 15.390625 -15.757812 14.484375 -16.65625 C 13.585938 -17.5625 12.625 -18.359375 11.59375 -19.046875 C 10.5625 -19.742188 9.578125 -20.335938 8.640625 -20.828125 Z M 8.640625 -20.828125 "/></g></g></g><g fill="#f97015" fill-opacity="1"><g transform="translate(130.186918, 90.597376)"><g><path d="M 3.984375 -18.6875 C 3.929688 -19.519531 3.882812 -20.359375 3.84375 -21.203125 C 3.800781 -22.046875 3.753906 -22.882812 3.703125 -23.71875 C 2.710938 -23.851562 1.976562 -24.191406 1.5 -24.734375 C 1.03125 -25.285156 0.796875 -25.882812 0.796875 -26.53125 C 0.796875 -27.175781 1.054688 -27.800781 1.578125 -28.40625 C 2.109375 -29.007812 2.894531 -29.3125 3.9375 -29.3125 L 5.1875 -29.3125 C 5.613281 -29.519531 6.03125 -29.625 6.4375 -29.625 C 6.863281 -29.625 7.265625 -29.519531 7.640625 -29.3125 L 16.8125 -29.3125 C 17.664062 -29.070312 18.289062 -28.6875 18.6875 -28.15625 C 19.09375 -27.632812 19.296875 -27.09375 19.296875 -26.53125 C 19.296875 -25.945312 19.066406 -25.382812 18.609375 -24.84375 C 18.160156 -24.3125 17.492188 -23.9375 16.609375 -23.71875 L 10.21875 -23.71875 C 9.8125 -23.582031 9.566406 -23.429688 9.484375 -23.265625 C 9.410156 -23.109375 9.375 -22.960938 9.375 -22.828125 C 9.375 -21.921875 9.421875 -21.050781 9.515625 -20.21875 C 9.609375 -19.382812 9.679688 -18.539062 9.734375 -17.6875 C 9.734375 -17.3125 9.757812 -17.035156 9.8125 -16.859375 C 9.863281 -16.691406 10.023438 -16.609375 10.296875 -16.609375 C 10.367188 -16.609375 10.457031 -16.613281 10.5625 -16.625 C 10.675781 -16.632812 10.785156 -16.65625 10.890625 -16.6875 C 11.878906 -16.875 12.75 -17.046875 13.5 -17.203125 C 14.257812 -17.367188 15.171875 -17.460938 16.234375 -17.484375 C 17.097656 -17.242188 17.726562 -16.863281 18.125 -16.34375 C 18.53125 -15.820312 18.734375 -15.28125 18.734375 -14.71875 C 18.734375 -14.125 18.503906 -13.554688 18.046875 -13.015625 C 17.597656 -12.484375 16.929688 -12.113281 16.046875 -11.90625 C 15.078125 -11.875 14.253906 -11.859375 13.578125 -11.859375 C 12.910156 -11.859375 12.175781 -11.832031 11.375 -11.78125 C 10.976562 -11.78125 10.6875 -11.707031 10.5 -11.5625 C 10.3125 -11.414062 10.21875 -11.097656 10.21875 -10.609375 C 10.21875 -9.941406 10.25 -9.265625 10.3125 -8.578125 C 10.375 -7.898438 10.40625 -7.171875 10.40625 -6.390625 C 10.40625 -5.929688 10.550781 -5.632812 10.84375 -5.5 C 11.144531 -5.375 11.484375 -5.3125 11.859375 -5.3125 C 13.066406 -5.3125 14.265625 -5.441406 15.453125 -5.703125 C 16.648438 -5.972656 17.84375 -6.242188 19.03125 -6.515625 C 20.226562 -6.785156 21.429688 -6.921875 22.640625 -6.921875 C 23.648438 -6.921875 24.429688 -6.632812 24.984375 -6.0625 C 25.535156 -5.5 25.8125 -4.882812 25.8125 -4.21875 C 25.8125 -3.632812 25.585938 -3.066406 25.140625 -2.515625 C 24.703125 -1.960938 24.023438 -1.578125 23.109375 -1.359375 C 21.773438 -1.285156 20.46875 -1.109375 19.1875 -0.828125 C 17.914062 -0.546875 16.609375 -0.28125 15.265625 -0.03125 C 13.929688 0.207031 12.488281 0.328125 10.9375 0.328125 C 9.832031 0.328125 8.8125 0.164062 7.875 -0.15625 C 6.9375 -0.476562 6.179688 -1.0625 5.609375 -1.90625 C 5.035156 -2.75 4.75 -3.921875 4.75 -5.421875 C 4.75 -7.597656 4.671875 -9.773438 4.515625 -11.953125 C 4.367188 -14.140625 4.191406 -16.382812 3.984375 -18.6875 Z M 3.984375 -18.6875 "/></g></g></g><g fill="#f97015" fill-opacity="1"><g transform="translate(154.390631, 90.597376)"><g><path d="M 3.578125 -25.5625 C 3.796875 -26.445312 4.171875 -27.117188 4.703125 -27.578125 C 5.242188 -28.035156 5.804688 -28.265625 6.390625 -28.265625 C 6.953125 -28.265625 7.492188 -28.0625 8.015625 -27.65625 C 8.535156 -27.257812 8.921875 -26.628906 9.171875 -25.765625 C 9.171875 -23.753906 9.171875 -21.878906 9.171875 -20.140625 C 9.171875 -18.398438 9.160156 -16.6875 9.140625 -15 C 9.128906 -13.3125 9.109375 -11.53125 9.078125 -9.65625 C 9.078125 -9.382812 9.125 -9.03125 9.21875 -8.59375 C 9.320312 -8.164062 9.566406 -7.789062 9.953125 -7.46875 C 10.335938 -7.15625 10.945312 -7 11.78125 -7 C 12.851562 -7 13.925781 -6.988281 15 -6.96875 C 16.070312 -6.957031 17.144531 -6.953125 18.21875 -6.953125 C 19.070312 -6.710938 19.695312 -6.332031 20.09375 -5.8125 C 20.5 -5.289062 20.703125 -4.75 20.703125 -4.1875 C 20.703125 -3.59375 20.472656 -3.023438 20.015625 -2.484375 C 19.566406 -1.953125 18.898438 -1.578125 18.015625 -1.359375 C 17.503906 -1.359375 16.992188 -1.351562 16.484375 -1.34375 C 15.972656 -1.332031 15.460938 -1.328125 14.953125 -1.328125 C 13.179688 -1.328125 11.414062 -1.367188 9.65625 -1.453125 C 8.550781 -1.503906 7.503906 -1.601562 6.515625 -1.75 C 5.523438 -1.894531 4.726562 -2.210938 4.125 -2.703125 C 3.519531 -3.203125 3.21875 -3.960938 3.21875 -4.984375 C 3.21875 -5.492188 3.296875 -6.046875 3.453125 -6.640625 C 3.453125 -8.960938 3.457031 -11.125 3.46875 -13.125 C 3.488281 -15.125 3.507812 -17.113281 3.53125 -19.09375 C 3.5625 -21.082031 3.578125 -23.238281 3.578125 -25.5625 Z M 3.578125 -25.5625 "/></g></g></g><g fill="#f97015" fill-opacity="1"><g transform="translate(174.292349, 90.597376)"><g><path d="M 3.78125 -10.015625 C 3.832031 -11.109375 3.90625 -12.304688 4 -13.609375 C 4.09375 -14.910156 4.21875 -16.222656 4.375 -17.546875 C 4.539062 -18.867188 4.703125 -20.109375 4.859375 -21.265625 C 5.023438 -21.960938 5.285156 -22.742188 5.640625 -23.609375 C 6.003906 -24.484375 6.46875 -25.242188 7.03125 -25.890625 C 7.59375 -26.535156 8.238281 -26.859375 8.96875 -26.859375 C 9.445312 -26.859375 9.882812 -26.628906 10.28125 -26.171875 C 10.6875 -25.710938 11.007812 -25.160156 11.25 -24.515625 C 11.5 -23.878906 11.625 -23.265625 11.625 -22.671875 C 11.625 -22.398438 11.582031 -22.125 11.5 -21.84375 C 11.414062 -21.5625 11.304688 -21.265625 11.171875 -20.953125 C 10.640625 -19.765625 10.195312 -18.453125 9.84375 -17.015625 C 9.5 -15.585938 9.238281 -14.144531 9.0625 -12.6875 C 8.882812 -11.226562 8.796875 -9.851562 8.796875 -8.5625 C 8.796875 -7.863281 8.828125 -7.148438 8.890625 -6.421875 C 8.960938 -5.703125 9 -4.992188 9 -4.296875 C 9 -3.847656 8.957031 -3.304688 8.875 -2.671875 C 8.800781 -2.046875 8.613281 -1.5 8.3125 -1.03125 C 8.019531 -0.5625 7.554688 -0.328125 6.921875 -0.328125 C 6.191406 -0.328125 5.550781 -0.609375 5 -1.171875 C 4.457031 -1.734375 4.023438 -2.394531 3.703125 -3.15625 C 3.378906 -3.914062 3.21875 -4.601562 3.21875 -5.21875 C 3.21875 -5.945312 3.289062 -6.71875 3.4375 -7.53125 C 3.582031 -8.351562 3.695312 -9.179688 3.78125 -10.015625 Z M 3.78125 -10.015625 "/></g></g></g><g fill="#f97015" fill-opacity="1"><g transform="translate(187.519946, 90.597376)"><g><path d="M 1.609375 -24.5625 C 1.828125 -25.445312 2.203125 -26.113281 2.734375 -26.5625 C 3.265625 -27.019531 3.828125 -27.25 4.421875 -27.25 C 4.984375 -27.25 5.523438 -27.046875 6.046875 -26.640625 C 6.566406 -26.242188 6.953125 -25.617188 7.203125 -24.765625 C 7.359375 -23.128906 7.644531 -21.375 8.0625 -19.5 C 8.476562 -17.625 8.992188 -15.75 9.609375 -13.875 C 10.222656 -12 10.878906 -10.210938 11.578125 -8.515625 C 11.796875 -8.015625 11.953125 -7.628906 12.046875 -7.359375 C 12.140625 -7.085938 12.222656 -6.953125 12.296875 -6.953125 C 12.378906 -6.953125 12.625 -7.410156 13.03125 -8.328125 C 13.914062 -10.390625 14.628906 -12.394531 15.171875 -14.34375 C 15.722656 -16.300781 16.175781 -18.421875 16.53125 -20.703125 C 16.601562 -21.296875 16.679688 -21.957031 16.765625 -22.6875 C 16.847656 -23.425781 16.988281 -24.128906 17.1875 -24.796875 C 17.382812 -25.472656 17.71875 -26.03125 18.1875 -26.46875 C 18.65625 -26.914062 19.332031 -27.140625 20.21875 -27.140625 C 20.945312 -27.140625 21.554688 -26.890625 22.046875 -26.390625 C 22.546875 -25.898438 22.796875 -25.25 22.796875 -24.4375 C 22.796875 -22.082031 22.535156 -19.6875 22.015625 -17.25 C 21.492188 -14.8125 20.796875 -12.425781 19.921875 -10.09375 C 19.046875 -7.757812 18.0625 -5.546875 16.96875 -3.453125 C 16.675781 -2.890625 16.28125 -2.351562 15.78125 -1.84375 C 15.28125 -1.332031 14.75 -0.914062 14.1875 -0.59375 C 13.625 -0.28125 13.101562 -0.125 12.625 -0.125 C 11.582031 -0.125 10.675781 -0.3125 9.90625 -0.6875 C 9.144531 -1.0625 8.578125 -1.664062 8.203125 -2.5 C 6.648438 -5.84375 5.25 -9.375 4 -13.09375 C 2.75 -16.820312 1.953125 -20.644531 1.609375 -24.5625 Z M 1.609375 -24.5625 "/></g></g></g><g fill="#f97015" fill-opacity="1"><g transform="translate(211.92468, 90.597376)"><g><path d="M 3.984375 -18.6875 C 3.929688 -19.519531 3.882812 -20.359375 3.84375 -21.203125 C 3.800781 -22.046875 3.753906 -22.882812 3.703125 -23.71875 C 2.710938 -23.851562 1.976562 -24.191406 1.5 -24.734375 C 1.03125 -25.285156 0.796875 -25.882812 0.796875 -26.53125 C 0.796875 -27.175781 1.054688 -27.800781 1.578125 -28.40625 C 2.109375 -29.007812 2.894531 -29.3125 3.9375 -29.3125 L 5.1875 -29.3125 C 5.613281 -29.519531 6.03125 -29.625 6.4375 -29.625 C 6.863281 -29.625 7.265625 -29.519531 7.640625 -29.3125 L 16.8125 -29.3125 C 17.664062 -29.070312 18.289062 -28.6875 18.6875 -28.15625 C 19.09375 -27.632812 19.296875 -27.09375 19.296875 -26.53125 C 19.296875 -25.945312 19.066406 -25.382812 18.609375 -24.84375 C 18.160156 -24.3125 17.492188 -23.9375 16.609375 -23.71875 L 10.21875 -23.71875 C 9.8125 -23.582031 9.566406 -23.429688 9.484375 -23.265625 C 9.410156 -23.109375 9.375 -22.960938 9.375 -22.828125 C 9.375 -21.921875 9.421875 -21.050781 9.515625 -20.21875 C 9.609375 -19.382812 9.679688 -18.539062 9.734375 -17.6875 C 9.734375 -17.3125 9.757812 -17.035156 9.8125 -16.859375 C 9.863281 -16.691406 10.023438 -16.609375 10.296875 -16.609375 C 10.367188 -16.609375 10.457031 -16.613281 10.5625 -16.625 C 10.675781 -16.632812 10.785156 -16.65625 10.890625 -16.6875 C 11.878906 -16.875 12.75 -17.046875 13.5 -17.203125 C 14.257812 -17.367188 15.171875 -17.460938 16.234375 -17.484375 C 17.097656 -17.242188 17.726562 -16.863281 18.125 -16.34375 C 18.53125 -15.820312 18.734375 -15.28125 18.734375 -14.71875 C 18.734375 -14.125 18.503906 -13.554688 18.046875 -13.015625 C 17.597656 -12.484375 16.929688 -12.113281 16.046875 -11.90625 C 15.078125 -11.875 14.253906 -11.859375 13.578125 -11.859375 C 12.910156 -11.859375 12.175781 -11.832031 11.375 -11.78125 C 10.976562 -11.78125 10.6875 -11.707031 10.5 -11.5625 C 10.3125 -11.414062 10.21875 -11.097656 10.21875 -10.609375 C 10.21875 -9.941406 10.25 -9.265625 10.3125 -8.578125 C 10.375 -7.898438 10.40625 -7.171875 10.40625 -6.390625 C 10.40625 -5.929688 10.550781 -5.632812 10.84375 -5.5 C 11.144531 -5.375 11.484375 -5.3125 11.859375 -5.3125 C 13.066406 -5.3125 14.265625 -5.441406 15.453125 -5.703125 C 16.648438 -5.972656 17.84375 -6.242188 19.03125 -6.515625 C 20.226562 -6.785156 21.429688 -6.921875 22.640625 -6.921875 C 23.648438 -6.921875 24.429688 -6.632812 24.984375 -6.0625 C 25.535156 -5.5 25.8125 -4.882812 25.8125 -4.21875 C 25.8125 -3.632812 25.585938 -3.066406 25.140625 -2.515625 C 24.703125 -1.960938 24.023438 -1.578125 23.109375 -1.359375 C 21.773438 -1.285156 20.46875 -1.109375 19.1875 -0.828125 C 17.914062 -0.546875 16.609375 -0.28125 15.265625 -0.03125 C 13.929688 0.207031 12.488281 0.328125 10.9375 0.328125 C 9.832031 0.328125 8.8125 0.164062 7.875 -0.15625 C 6.9375 -0.476562 6.179688 -1.0625 5.609375 -1.90625 C 5.035156 -2.75 4.75 -3.921875 4.75 -5.421875 C 4.75 -7.597656 4.671875 -9.773438 4.515625 -11.953125 C 4.367188 -14.140625 4.191406 -16.382812 3.984375 -18.6875 Z M 3.984375 -18.6875 "/></g></g></g><g fill="#f97015" fill-opacity="1"><g transform="translate(236.12841, 90.597376)"><g><path d="M 8.328125 -12.953125 C 8.210938 -12.140625 8.117188 -11.507812 8.046875 -11.0625 C 7.984375 -10.625 7.925781 -10.238281 7.875 -9.90625 C 7.820312 -9.570312 7.757812 -9.179688 7.6875 -8.734375 C 7.625 -8.296875 7.539062 -7.660156 7.4375 -6.828125 C 7.351562 -6.160156 7.25 -5.40625 7.125 -4.5625 C 7.007812 -3.71875 6.835938 -2.898438 6.609375 -2.109375 C 6.378906 -1.316406 6.070312 -0.660156 5.6875 -0.140625 C 5.300781 0.378906 4.785156 0.640625 4.140625 0.640625 C 3.304688 0.640625 2.742188 0.414062 2.453125 -0.03125 C 2.160156 -0.488281 2.015625 -1.015625 2.015625 -1.609375 C 2.015625 -2.410156 2.050781 -3.257812 2.125 -4.15625 C 2.207031 -5.0625 2.332031 -5.890625 2.5 -6.640625 C 2.894531 -8.566406 3.21875 -10.3125 3.46875 -11.875 C 3.726562 -13.445312 3.957031 -14.957031 4.15625 -16.40625 C 4.363281 -17.851562 4.550781 -19.359375 4.71875 -20.921875 C 4.894531 -22.492188 5.09375 -24.242188 5.3125 -26.171875 C 5.46875 -27.703125 5.972656 -29.078125 6.828125 -30.296875 C 7.691406 -31.515625 8.753906 -32.476562 10.015625 -33.1875 C 11.273438 -33.894531 12.597656 -34.25 13.984375 -34.25 C 15.941406 -34.25 17.484375 -33.664062 18.609375 -32.5 C 19.734375 -31.332031 20.296875 -29.894531 20.296875 -28.1875 C 20.296875 -26.84375 20.132812 -25.476562 19.8125 -24.09375 C 19.5 -22.71875 18.953125 -21.457031 18.171875 -20.3125 C 17.390625 -19.175781 16.304688 -18.273438 14.921875 -17.609375 C 14.003906 -17.148438 13.546875 -16.5625 13.546875 -15.84375 C 13.546875 -15.351562 13.734375 -14.800781 14.109375 -14.1875 C 14.835938 -12.976562 15.59375 -11.773438 16.375 -10.578125 C 17.164062 -9.390625 18.078125 -8.320312 19.109375 -7.375 C 20.148438 -6.425781 21.40625 -5.695312 22.875 -5.1875 C 23.28125 -5.019531 23.707031 -4.726562 24.15625 -4.3125 C 24.613281 -3.90625 25.007812 -3.492188 25.34375 -3.078125 C 25.675781 -2.660156 25.84375 -2.34375 25.84375 -2.125 C 25.84375 -1.457031 25.632812 -0.921875 25.21875 -0.515625 C 24.8125 -0.117188 24.296875 0.078125 23.671875 0.078125 C 23.273438 0.078125 22.910156 -0.00390625 22.578125 -0.171875 C 22.242188 -0.347656 21.890625 -0.492188 21.515625 -0.609375 C 18.753906 -1.921875 16.394531 -3.632812 14.4375 -5.75 C 12.476562 -7.863281 10.691406 -10.265625 9.078125 -12.953125 C 9.003906 -12.921875 8.898438 -12.90625 8.765625 -12.90625 C 8.710938 -12.90625 8.644531 -12.90625 8.5625 -12.90625 C 8.476562 -12.90625 8.398438 -12.921875 8.328125 -12.953125 Z M 15.4375 -27.5 C 15.4375 -28.382812 15.378906 -28.988281 15.265625 -29.3125 C 15.160156 -29.632812 14.921875 -29.796875 14.546875 -29.796875 C 13.984375 -29.796875 13.375 -29.578125 12.71875 -29.140625 C 12.0625 -28.710938 11.429688 -28.171875 10.828125 -27.515625 C 10.234375 -26.859375 9.738281 -26.175781 9.34375 -25.46875 C 8.957031 -24.757812 8.765625 -24.109375 8.765625 -23.515625 C 8.765625 -22.847656 8.914062 -22.3125 9.21875 -21.90625 C 9.53125 -21.507812 9.925781 -21.3125 10.40625 -21.3125 C 10.707031 -21.3125 11.070312 -21.414062 11.5 -21.625 C 12.675781 -22.269531 13.601562 -23.066406 14.28125 -24.015625 C 14.96875 -24.972656 15.351562 -26.132812 15.4375 -27.5 Z M 15.4375 -27.5 "/></g></g></g><g fill="#f97015" fill-opacity="1"><g transform="translate(260.372321, 90.597376)"><g><path d="M 8.15625 -3.453125 L 7.109375 -11.625 C 6.953125 -12.820312 6.535156 -13.96875 5.859375 -15.0625 C 5.191406 -16.164062 4.46875 -17.21875 3.6875 -18.21875 C 2.914062 -19.226562 2.238281 -20.222656 1.65625 -21.203125 C 1.082031 -22.179688 0.796875 -23.164062 0.796875 -24.15625 C 0.796875 -24.9375 1.035156 -25.566406 1.515625 -26.046875 C 2.003906 -26.535156 2.613281 -26.78125 3.34375 -26.78125 C 3.976562 -26.78125 4.578125 -26.5625 5.140625 -26.125 C 5.703125 -25.695312 6.234375 -25.15625 6.734375 -24.5 C 7.234375 -23.84375 7.695312 -23.144531 8.125 -22.40625 C 8.550781 -21.675781 8.9375 -21.003906 9.28125 -20.390625 C 9.769531 -21.535156 10.351562 -22.632812 11.03125 -23.6875 C 11.71875 -24.75 12.421875 -25.78125 13.140625 -26.78125 C 13.515625 -27.125 13.910156 -27.367188 14.328125 -27.515625 C 14.742188 -27.660156 15.128906 -27.734375 15.484375 -27.734375 C 16.203125 -27.734375 16.804688 -27.484375 17.296875 -26.984375 C 17.796875 -26.492188 18.046875 -25.847656 18.046875 -25.046875 C 18.046875 -24.585938 17.941406 -24.078125 17.734375 -23.515625 C 16.304688 -21.960938 15.117188 -20.265625 14.171875 -18.421875 C 13.222656 -16.585938 12.75 -14.5625 12.75 -12.34375 C 12.75 -10.738281 12.898438 -9.265625 13.203125 -7.921875 C 13.515625 -6.578125 13.695312 -5.15625 13.75 -3.65625 C 13.71875 -2.613281 13.414062 -1.828125 12.84375 -1.296875 C 12.269531 -0.773438 11.644531 -0.515625 10.96875 -0.515625 C 10.332031 -0.515625 9.738281 -0.753906 9.1875 -1.234375 C 8.632812 -1.722656 8.289062 -2.460938 8.15625 -3.453125 Z M 8.15625 -3.453125 "/></g></g></g><path stroke-linecap="round" transform="matrix(0.75, 0, 0, 0.75, 175.367028, 47.609478)" fill="none" stroke-linejoin="miter" d="M 5.000213 4.999862 L 31.364798 4.999862 " stroke="#f97015" stroke-width="10" stroke-opacity="1" stroke-miterlimit="4"/></svg>